<?xml version="1.0" standalone="no"?>
<!DOCTYPE svg PUBLIC "-//W3C//DTD SVG 20010904//EN"
 "http://www.w3.org/TR/2001/REC-SVG-20010904/DTD/svg10.dtd">
<svg version="1.0" xmlns="http://www.w3.org/2000/svg"
 width="512.000000pt" height="512.000000pt" viewBox="0 0 512.000000 512.000000"
 preserveAspectRatio="xMidYMid meet">
<metadata>
Created by potrace 1.11, written by Peter Selinger 2001-2013
</metadata>
<g transform="translate(0.000000,512.000000) scale(0.100000,-0.100000)"
fill="#000000" stroke="none">
<path d="M2125 4198 c-22 -5 -58 -14 -80 -20 -22 -5 -56 -14 -75 -18 -74 -19
-309 -95 -387 -127 -45 -18 -88 -30 -96 -27 -8 3 -40 34 -71 69 -93 105 -217
142 -336 100 -34 -12 -51 -13 -84 -4 -45 12 -172 6 -227 -12 -58 -18 -120 -52
-135 -73 -8 -11 -14 -34 -14 -51 0 -68 112 -127 295 -155 92 -15 156 -53 204
-124 51 -74 57 -125 32 -258 -26 -144 -26 -178 0 -254 l22 -62 -23 -32 c-22
-30 -22 -38 -16 -153 6 -122 16 -203 36 -287 16 -69 24 -436 11 -490 -7 -25
-16 -203 -21 -405 -10 -399 -18 -458 -60 -463 -24 -3 -64 -15 -105 -33 -46
-19 -113 -37 -165 -44 -65 -9 -129 -37 -161 -71 -22 -23 -22 -26 -7 -57 15
-31 47 -52 130 -85 52 -21 150 -24 345 -12 163 10 220 10 323 -1 168 -18 278
-18 314 1 70 36 96 128 54 190 -13 19 -37 41 -52 49 -43 20 -154 41 -222 41
-53 0 -65 4 -87 26 -15 14 -33 51 -42 82 -21 79 -35 120 -55 167 -48 109 -48
125 -4 125 13 0 24 3 24 8 0 4 5 64 10 134 9 128 30 199 67 230 20 16 89 13
139 -8 57 -23 135 -57 219 -94 144 -64 166 -71 218 -73 35 -2 51 3 69 21 28
25 77 29 158 10 111 -26 280 36 399 146 40 36 79 66 87 66 8 0 19 19 27 47 9
33 23 54 51 77 94 75 106 90 132 165 15 41 42 94 60 118 38 50 38 50 54 183 7
52 21 135 31 184 11 53 19 130 19 188 0 101 -11 143 -69 272 -19 40 -22 58
-16 107 7 58 6 60 -28 99 -54 59 -67 91 -67 163 0 49 -4 68 -18 80 -10 10 -23
17 -29 17 -6 0 -42 35 -80 78 -60 65 -84 84 -164 124 -102 51 -188 86 -259
107 -25 7 -55 17 -68 22 -29 11 -154 9 -207 -3z m-40 -88 c0 -8 -10 -16 -22
-18 -22 -3 -32 16 -16 32 12 11 38 2 38 -14z m-147 -201 c89 -42 133 -46 202
-20 87 33 112 29 250 -37 30 -15 79 -50 108 -79 28 -29 64 -56 80 -59 46 -11
72 -42 72 -87 0 -31 13 -62 54 -131 106 -178 146 -282 149 -383 1 -48 -5 -71
-32 -127 -32 -67 -33 -71 -26 -156 l7 -88 -36 -40 c-29 -31 -36 -47 -36 -80 0
-33 -5 -45 -32 -66 -53 -42 -68 -59 -68 -75 0 -28 -39 -81 -68 -92 -15 -6 -43
-25 -62 -43 -47 -45 -119 -92 -177 -117 -52 -22 -117 -22 -203 1 -25 6 -94 19
-155 27 -125 17 -184 41 -270 106 -53 40 -175 165 -215 221 -12 17 -15 57 -15
201 -1 99 -5 233 -9 299 -11 151 6 287 57 461 17 56 31 79 69 118 26 26 53 47
61 47 8 0 22 9 32 20 10 11 25 20 34 20 10 0 21 13 26 32 7 21 22 38 45 50 45
25 70 54 70 84 0 31 8 30 88 -7z"/>
<path d="M4000 1918 c-162 -24 -184 -31 -203 -70 -14 -28 -26 -38 -63 -48 -42
-12 -45 -15 -42 -44 3 -29 1 -31 -29 -28 -33 2 -33 2 -33 -44 0 -25 5 -54 11
-65 9 -17 6 -21 -18 -30 -16 -5 -34 -19 -42 -31 -18 -29 -24 -115 -14 -227 l8
-94 38 -20 c34 -18 38 -23 32 -46 -23 -82 15 -182 101 -266 103 -100 218 -140
334 -115 148 32 190 35 238 17 39 -13 49 -14 62 -3 8 8 31 22 50 31 39 20 59
42 60 66 0 20 31 49 53 49 9 0 28 11 44 24 22 20 25 26 15 39 -12 14 -73 34
-122 39 -17 2 -25 9 -25 23 0 14 20 29 75 57 41 21 94 58 116 81 59 62 66 128
32 294 l-11 52 -42 -6 c-38 -5 -49 -1 -103 36 -64 43 -81 48 -99 30 -6 -6 -19
-9 -29 -7 -16 3 -12 11 25 51 47 51 68 57 120 31 43 -22 61 -13 61 32 0 71
-75 112 -245 134 -132 16 -197 31 -227 52 -28 20 -32 20 -128 6z m164 -596
c10 -17 -25 -51 -57 -56 -97 -16 -138 -16 -144 0 -13 34 10 48 73 45 32 -1 70
2 84 8 32 12 38 13 44 3z m166 -91 c0 -12 -9 -20 -25 -23 -34 -7 -40 3 -13 24
30 23 38 22 38 -1z m-543 -93 c43 -18 63 -39 63 -65 0 -27 -14 -28 -55 -4 -31
18 -58 58 -49 73 7 10 8 10 41 -4z"/>
</g>
</svg>
